<?xml version="1.0" standalone="no"?>
<!DOCTYPE svg PUBLIC "-//W3C//DTD SVG 20010904//EN"
 "http://www.w3.org/TR/2001/REC-SVG-20010904/DTD/svg10.dtd">
<svg version="1.0" xmlns="http://www.w3.org/2000/svg"
 width="512.000000pt" height="512.000000pt" viewBox="0 0 512.000000 512.000000"
 preserveAspectRatio="xMidYMid meet">

<g transform="translate(0.000000,512.000000) scale(0.100000,-0.100000)"
fill="#000000" stroke="none">
<path d="M3340 4720 c-280 -39 -549 -157 -735 -323 l-50 -45 -61 49 c-382 304
-878 392 -1337 238 -351 -117 -651 -381 -812 -714 -98 -203 -138 -378 -138
-610 -1 -351 107 -651 329 -915 34 -41 498 -510 1031 -1043 764 -762 974 -967
993 -967 20 0 206 183 905 887 1109 1119 1137 1148 1212 1260 107 160 180 340
219 538 24 123 24 366 1 495 -105 567 -539 1011 -1105 1130 -111 24 -350 34
-452 20z"/>
</g>
</svg>
